<svg xmlns="http://www.w3.org/2000/svg" width="30" height="30" viewBox="0 0 30 30">
  <g id="Grupo_3781" data-name="Grupo 3781" transform="translate(-4906 -248)">
    <g id="Caminho_1477" data-name="Caminho 1477" transform="translate(4906 248)" fill="none">
      <path d="M15,0A15,15,0,1,1,0,15,15,15,0,0,1,15,0Z" stroke="none"/>
      <path d="M 15 2 C 11.5275707244873 2 8.262990951538086 3.352239608764648 5.807609558105469 5.807609558105469 C 3.352239608764648 8.262990951538086 2 11.5275707244873 2 15 C 2 18.47243118286133 3.352239608764648 21.73701095581055 5.807609558105469 24.19239044189453 C 8.262990951538086 26.64776039123535 11.5275707244873 28 15 28 C 18.47243118286133 28 21.73701095581055 26.64776039123535 24.19239044189453 24.19239044189453 C 26.64776039123535 21.73701095581055 28 18.47243118286133 28 15 C 28 11.5275707244873 26.64776039123535 8.262990951538086 24.19239044189453 5.807609558105469 C 21.73701095581055 3.352239608764648 18.47243118286133 2 15 2 M 15 0 C 23.28426933288574 0 30 6.715730667114258 30 15 C 30 23.28426933288574 23.28426933288574 30 15 30 C 6.715730667114258 30 0 23.28426933288574 0 15 C 0 6.715730667114258 6.715730667114258 0 15 0 Z" stroke="none" fill="#012169"/>
    </g>
    <path id="Caminho_663" data-name="Caminho 663" d="M7.334-3.691H4.844q-.01-.537-.01-.654a4.356,4.356,0,0,1,.4-1.992A6.074,6.074,0,0,1,6.836-8.1,11.99,11.99,0,0,0,8.271-9.375a1.71,1.71,0,0,0,.361-1.055,1.777,1.777,0,0,0-.64-1.372,2.492,2.492,0,0,0-1.724-.571,2.611,2.611,0,0,0-1.748.6,3.171,3.171,0,0,0-.967,1.816l-2.52-.312a4.181,4.181,0,0,1,1.489-2.969,5.278,5.278,0,0,1,3.628-1.221,5.47,5.47,0,0,1,3.76,1.235,3.74,3.74,0,0,1,1.4,2.876A3.162,3.162,0,0,1,10.8-8.633,11.254,11.254,0,0,1,8.6-6.426,4.185,4.185,0,0,0,7.524-5.264,3.9,3.9,0,0,0,7.334-3.691ZM4.59,1.368V-1.376H7.334V1.368Z" transform="translate(4914.465 270)" fill="#012169" stroke="#012169" stroke-linecap="round" stroke-linejoin="round" stroke-width="1"/>
  </g>
</svg>
