<svg xmlns="http://www.w3.org/2000/svg" xmlns:xlink="http://www.w3.org/1999/xlink" width="64.558" height="79.194" viewBox="0 0 64.558 79.194">
  <defs>
    <filter id="Caminho_114" x="0" y="0" width="64.558" height="79.194" filterUnits="userSpaceOnUse">
      <feOffset dy="3" input="SourceAlpha"/>
      <feGaussianBlur stdDeviation="0.5" result="blur"/>
      <feFlood flood-opacity="0.161"/>
      <feComposite operator="in" in2="blur"/>
      <feComposite in="SourceGraphic"/>
    </filter>
  </defs>
  <g id="Grupo_881" data-name="Grupo 881" transform="translate(-9094 -1642.585)">
    <g transform="matrix(1, 0, 0, 1, 9094, 1642.58)" filter="url(#Caminho_114)">
      <path id="Caminho_114-2" data-name="Caminho 114" d="M8.469,8.732A29.933,29.933,0,0,1,50.8,51.064L29.635,72.23,8.469,51.064A30.75,30.75,0,0,1,8.469,8.732Z" transform="translate(2.47 1.05)" fill="#fff" stroke="#f19900" stroke-width="2" fill-rule="evenodd"/>
    </g>
    <g id="parking-sign" transform="translate(9106.774 1653.107)">
      <path id="Caminho_642" data-name="Caminho 642" d="M29.294,0H9.711A9.722,9.722,0,0,0,0,9.711V29.294A9.722,9.722,0,0,0,9.711,39H29.294A9.722,9.722,0,0,0,39,29.294V9.711A9.722,9.722,0,0,0,29.294,0Zm.622,29.825a6.037,6.037,0,0,1-3.1-11.219l-.371-1.021H24.5L21.146,24.3a1.143,1.143,0,0,1-1.022.632H16.863a6.042,6.042,0,1,1-4.3-6.956l.724-1.448-1.741-2.611h-.612a1.143,1.143,0,1,1,0-2.285h3.672a1.143,1.143,0,1,1,0,2.285h-.313l.924,1.386h10.4l-.434-1.192-.961-2.642H21.348a1.143,1.143,0,1,1,0-2.285H25.02a1.143,1.143,0,0,1,1.074.752l2.87,7.891a6.038,6.038,0,1,1,.952,12Z" transform="translate(0 0)" fill="#f19900"/>
      <path id="Caminho_643" data-name="Caminho 643" d="M97.047,267.32a1.143,1.143,0,0,1-.05-1.112l1.6-3.2a3.753,3.753,0,1,0,3,4.851H98.019A1.143,1.143,0,0,1,97.047,267.32Z" transform="translate(-87.085 -242.933)" fill="#f19900"/>
      <path id="Caminho_645" data-name="Caminho 645" d="M191.736,232.246a6.045,6.045,0,0,1,2.257,3.646h2.554l2.529-5.058h-6.634Z" transform="translate(-177.129 -213.249)" fill="#f19900"/>
      <path id="Caminho_646" data-name="Caminho 646" d="M322.953,262.967c-.049,0-.1,0-.148,0l1.221,3.359a1.143,1.143,0,1,1-2.148.781l-1.221-3.357a3.75,3.75,0,1,0,2.295-.786Z" transform="translate(-293.038 -242.934)" fill="#f19900"/>
    </g>
  </g>
</svg>
