<svg xmlns="http://www.w3.org/2000/svg" width="24.275" height="24.275" viewBox="0 0 24.275 24.275">
  <g id="Grupo_926" data-name="Grupo 926" transform="translate(24.277 24.275) rotate(180)">
    <path id="Caminho_1349" data-name="Caminho 1349" d="M20.748,3.58A12.043,12.043,0,0,0,12.223,0h-.08A12.146,12.146,0,0,0,0,12.135,12.146,12.146,0,0,0,12.143,24.275a.591.591,0,0,0,.08,0A12.136,12.136,0,0,0,20.748,3.58ZM19.736,19.689a10.625,10.625,0,0,1-7.529,3.16h-.064a10.715,10.715,0,1,1,0-21.43h.064a10.712,10.712,0,0,1,7.529,18.27Z" fill="#d40f7d"/>
    <path id="Uni達o_54" data-name="Uni達o 54" d="M449-607.55v-5.426A2.036,2.036,0,0,1,451.025-615a2.023,2.023,0,0,1,2.02,2.023v5.426a1.921,1.921,0,0,1-2.02,1.93A1.914,1.914,0,0,1,449-607.55Z" transform="translate(-438.824 620.111)" fill="#d40f7d"/>
    <path id="Uni達o_53" data-name="Uni達o 53" d="M449-613.082A1.921,1.921,0,0,1,450.918-615a1.921,1.921,0,0,1,1.916,1.918,1.914,1.914,0,0,1-1.916,1.91A1.914,1.914,0,0,1,449-613.082Z" transform="translate(-438.718 630.229)" fill="#d40f7d"/>
  </g>
</svg>
