<svg xmlns="http://www.w3.org/2000/svg" width="24.227" height="23.185" viewBox="0 0 24.227 23.185">
  <path id="Caminho_1370" data-name="Caminho 1370" d="M23558.424,7109.185a2.891,2.891,0,0,1-1.719-.565,2.858,2.858,0,0,1-1.146-2.824l.7-4.03a1.467,1.467,0,0,0-.426-1.3l-2.949-2.854a2.874,2.874,0,0,1-.881-2.058v-.01a2.9,2.9,0,0,1,2.494-2.868l4.07-.591a1.482,1.482,0,0,0,1.119-.806l1.824-3.665a2.911,2.911,0,0,1,5.211,0l1.822,3.665a1.485,1.485,0,0,0,1.121.806l4.072.591a2.889,2.889,0,0,1,2.352,1.977,2.84,2.84,0,0,1,.141.891v.01a2.86,2.86,0,0,1-.883,2.058l-2.947,2.854a1.479,1.479,0,0,0-.428,1.3l.7,4.03a2.863,2.863,0,0,1-1.148,2.824,2.9,2.9,0,0,1-3.068.23l-3.645-1.9a1.5,1.5,0,0,0-1.387,0l-3.646,1.9A2.888,2.888,0,0,1,23558.424,7109.185Zm5.686-21.768a1.458,1.458,0,0,0-1.33.826l-1.822,3.665a2.9,2.9,0,0,1-2.189,1.582l-4.074.591a1.467,1.467,0,0,0-.826,2.508l2.949,2.853a2.879,2.879,0,0,1,.834,2.563l-.693,4.03a1.446,1.446,0,0,0,.586,1.437,1.464,1.464,0,0,0,1.576.115l3.645-1.9a2.917,2.917,0,0,1,1.346-.331,2.948,2.948,0,0,1,1.354.331l3.643,1.9a1.467,1.467,0,0,0,1.578-.115,1.45,1.45,0,0,0,.586-1.437l-.7-4.03a2.875,2.875,0,0,1,.836-2.563l2.949-2.853a1.47,1.47,0,0,0-.826-2.508l-4.076-.591a2.9,2.9,0,0,1-2.187-1.582l-1.824-3.665A1.461,1.461,0,0,0,23564.109,7087.417Z" transform="translate(-23552 -7086)" fill="#d40f7d"/>
</svg>
