<svg xmlns="http://www.w3.org/2000/svg" width="24.273" height="24.275" viewBox="0 0 24.273 24.275">
  <g id="Grupo_935" data-name="Grupo 935" transform="translate(-0.001)">
    <path id="Caminho_1386" data-name="Caminho 1386" d="M39267.16,20931h-18.051a3.116,3.116,0,0,0-3.109,3.115v18.047a3.115,3.115,0,0,0,3.109,3.113h18.051a3.118,3.118,0,0,0,3.113-3.113v-18.047A3.12,3.12,0,0,0,39267.16,20931Zm-18.051,1.422h18.051a1.693,1.693,0,0,1,1.688,1.693v16.627h-21.426v-16.627A1.693,1.693,0,0,1,39249.109,20932.422Zm18.051,21.428h-18.051a1.689,1.689,0,0,1-1.687-1.687h21.426A1.689,1.689,0,0,1,39267.16,20953.85Z" transform="translate(-39246 -20931)" fill="#d40f7d"/>
    <path id="Caminho_1387" data-name="Caminho 1387" d="M41281.207,21406.422h-2.5a.711.711,0,0,1,0-1.422h2.5a.711.711,0,1,1,0,1.422Z" transform="translate(-41267.824 -21402.627)" fill="#d40f7d"/>
    <path id="Caminho_1388" data-name="Caminho 1388" d="M39885.887,22150.322h-2.449a1.442,1.442,0,0,1-1.437-1.437v-2.441a1.444,1.444,0,0,1,1.438-1.443h2.449a1.444,1.444,0,0,1,1.438,1.443v2.441A1.442,1.442,0,0,1,39885.887,22150.322Zm-2.449-3.9a.028.028,0,0,0-.016.023v2.441c0,.01.012.016.016.016h2.449a.015.015,0,0,0,.016-.016v-2.441c0-.012-.008-.023-.016-.023Z" transform="translate(-39878.816 -22138.924)" fill="#d40f7d"/>
    <path id="Caminho_1389" data-name="Caminho 1389" d="M41137.887,22150.322h-2.449a1.442,1.442,0,0,1-1.437-1.437v-2.441a1.444,1.444,0,0,1,1.438-1.443h2.449a1.444,1.444,0,0,1,1.438,1.443v2.441A1.442,1.442,0,0,1,41137.887,22150.322Zm-2.449-3.9a.028.028,0,0,0-.016.023v2.441c0,.01.012.016.016.016h2.449c.012,0,.016-.006.016-.016v-2.441c0-.012,0-.023-.016-.023Z" transform="translate(-41124.547 -22138.924)" fill="#d40f7d"/>
    <path id="Caminho_1390" data-name="Caminho 1390" d="M42382.887,22150.322h-2.449a1.442,1.442,0,0,1-1.437-1.437v-2.441a1.444,1.444,0,0,1,1.438-1.443h2.449a1.444,1.444,0,0,1,1.438,1.443v2.441A1.442,1.442,0,0,1,42382.887,22150.322Zm-2.449-3.9c-.008,0-.016.012-.016.023v2.441a.015.015,0,0,0,.016.016h2.449s.016-.006.016-.016v-2.441a.028.028,0,0,0-.016-.023Z" transform="translate(-42363.313 -22138.924)" fill="#d40f7d"/>
    <path id="Caminho_1391" data-name="Caminho 1391" d="M39889.883,23399.318h-2.445a1.44,1.44,0,0,1-1.437-1.439v-2.441a1.439,1.439,0,0,1,1.438-1.437h2.445a1.434,1.434,0,0,1,1.438,1.438v2.441A1.435,1.435,0,0,1,39889.883,23399.318Zm-2.445-3.9c-.012,0-.02.006-.02.016v2.441a.018.018,0,0,0,.02.018h2.445s.02-.008.02-.018v-2.441c0-.01-.016-.016-.02-.016Z" transform="translate(-39882.797 -23381.67)" fill="#d40f7d"/>
    <path id="Caminho_1392" data-name="Caminho 1392" d="M41141.883,23399.318h-2.445a1.438,1.438,0,0,1-1.437-1.439v-2.441a1.436,1.436,0,0,1,1.438-1.437h2.445a1.439,1.439,0,0,1,1.438,1.438v2.441A1.44,1.44,0,0,1,41141.883,23399.318Zm-2.445-3.9c-.012,0-.02.006-.02.016v2.441a.018.018,0,0,0,.02.018h2.445a.021.021,0,0,0,.016-.018v-2.441c0-.01-.012-.016-.016-.016Z" transform="translate(-41128.527 -23381.67)" fill="#d40f7d"/>
    <path id="Caminho_1393" data-name="Caminho 1393" d="M42386.883,23399.318h-2.445a1.435,1.435,0,0,1-1.437-1.439v-2.441a1.434,1.434,0,0,1,1.438-1.437h2.445a1.427,1.427,0,0,1,1.43,1.438v2.441A1.429,1.429,0,0,1,42386.883,23399.318Zm-2.445-3.9a.015.015,0,0,0-.016.016v2.441a.017.017,0,0,0,.016.018h2.445a.017.017,0,0,0,.016-.018v-2.441a.015.015,0,0,0-.016-.016Z" transform="translate(-42367.293 -23381.67)" fill="#d40f7d"/>
  </g>
</svg>
