<svg xmlns="http://www.w3.org/2000/svg" xmlns:xlink="http://www.w3.org/1999/xlink" width="124.904" height="48.672" viewBox="0 0 124.904 48.672">
  <defs>
    <linearGradient id="linear-gradient" x1="0.92" y1="0.235" x2="0.064" y2="0.767" gradientUnits="objectBoundingBox">
      <stop offset="0" stop-color="#d40f7d"/>
      <stop offset="0.549" stop-color="#f03e97"/>
      <stop offset="1" stop-color="#d40f7d"/>
    </linearGradient>
  </defs>
  <g id="Camada_x0020_1" transform="translate(-0.166 -0.199)">
    <path id="Caminho_1428" data-name="Caminho 1428" d="M13549.047,6162.032a.629.629,0,0,1,.207.511.986.986,0,0,1-.234.538,4.572,4.572,0,0,1-1.34,1,4.324,4.324,0,0,1-2.082.487,4.958,4.958,0,0,1-1.979-.373,4.2,4.2,0,0,1-1.443-1,4.1,4.1,0,0,1-.883-1.468,5.388,5.388,0,0,1-.293-1.764v-2.809a4.9,4.9,0,0,1,.322-1.765,4.27,4.27,0,0,1,.916-1.468,4.535,4.535,0,0,1,1.445-1,4.729,4.729,0,0,1,1.914-.368,4.5,4.5,0,0,1,1.867.368,4.668,4.668,0,0,1,1.354.906.748.748,0,0,1,0,1.076l-.486.483a.677.677,0,0,1-1.049-.023,2.515,2.515,0,0,0-.727-.448,2.433,2.433,0,0,0-.959-.194,2.034,2.034,0,0,0-1.76.732,2.753,2.753,0,0,0-.539,1.7v2.809a3.75,3.75,0,0,0,.115.934,2.018,2.018,0,0,0,.383.78,1.813,1.813,0,0,0,.7.522,2.692,2.692,0,0,0,1.1.194,2.271,2.271,0,0,0,1.15-.281,4.39,4.39,0,0,0,.764-.538.718.718,0,0,1,1.078,0Zm6.807.36a3.5,3.5,0,0,0,1.467-.309,3.785,3.785,0,0,0,1.176-.815,3.629,3.629,0,0,0,.779-1.215,4.117,4.117,0,0,0,0-2.991,3.605,3.605,0,0,0-.779-1.21,3.789,3.789,0,0,0-1.176-.819,3.645,3.645,0,0,0-2.936,0,3.781,3.781,0,0,0-1.174.819,3.635,3.635,0,0,0-.779,1.21,4.117,4.117,0,0,0,0,2.991,3.66,3.66,0,0,0,.779,1.215,3.777,3.777,0,0,0,1.174.815A3.509,3.509,0,0,0,13555.854,6162.392Zm0,2.172a5.779,5.779,0,0,1-2.338-.475,6.109,6.109,0,0,1-3.193-3.193,6.044,6.044,0,0,1,0-4.677,6.1,6.1,0,0,1,3.193-3.193,6.041,6.041,0,0,1,4.676,0,6.1,6.1,0,0,1,3.193,3.193,6.044,6.044,0,0,1,0,4.677,6.109,6.109,0,0,1-3.193,3.193A5.786,5.786,0,0,1,13555.854,6164.564Zm15.391-.257a.745.745,0,0,1-.561-.206.738.738,0,0,1-.207-.562v-6.386a2.567,2.567,0,0,0-.6-1.7,2.644,2.644,0,0,0-3.652,0,2.579,2.579,0,0,0-.6,1.7v6.386a.707.707,0,0,1-.764.768h-.768a.71.71,0,0,1-.768-.768v-6.386a4.607,4.607,0,0,1,.344-1.765,4.558,4.558,0,0,1,.957-1.468,4.646,4.646,0,0,1,1.484-1,5.315,5.315,0,0,1,3.885,0,4.607,4.607,0,0,1,1.48,1,4.558,4.558,0,0,1,.957,1.468,4.644,4.644,0,0,1,.344,1.765v6.386a.7.7,0,0,1-.764.768Zm11.43,0a.71.71,0,0,1-.766-.768v-6.386a2.561,2.561,0,0,0-.6-1.7,2.642,2.642,0,0,0-3.65,0,2.579,2.579,0,0,0-.6,1.7v6.386a.707.707,0,0,1-.764.768h-.768a.753.753,0,0,1-.562-.206.744.744,0,0,1-.205-.562v-6.386a4.644,4.644,0,0,1,.344-1.765,4.558,4.558,0,0,1,.957-1.468,4.668,4.668,0,0,1,1.484-1,5.3,5.3,0,0,1,3.881,0,4.437,4.437,0,0,1,2.441,2.465,4.646,4.646,0,0,1,.346,1.765v6.386a.707.707,0,0,1-.764.768Zm11.814-2.5a.679.679,0,0,1,.219.51.91.91,0,0,1-.219.538,4.773,4.773,0,0,1-1.506,1.175,4.981,4.981,0,0,1-2.379.538,5.049,5.049,0,0,1-1.928-.348,4.268,4.268,0,0,1-2.416-2.386,4.547,4.547,0,0,1-.332-1.737v-3.014a5.144,5.144,0,0,1,.3-1.753,4.041,4.041,0,0,1,.865-1.444,4.169,4.169,0,0,1,1.4-.97,4.807,4.807,0,0,1,1.908-.356,4.877,4.877,0,0,1,1.914.356,4.405,4.405,0,0,1,1.445.97,4.216,4.216,0,0,1,.916,1.444,4.809,4.809,0,0,1,.322,1.753v1.531a.71.71,0,0,1-.768.767h-5.75a.222.222,0,0,0-.252.254v.462a2.411,2.411,0,0,0,.572,1.634,2.262,2.262,0,0,0,1.8.665,2.784,2.784,0,0,0,1.508-.344,4.3,4.3,0,0,0,.818-.653.691.691,0,0,1,1.072-.028Zm-1.787-4.724a2.627,2.627,0,0,0-.539-1.662,2.1,2.1,0,0,0-1.76-.692,1.926,1.926,0,0,0-1.689.692,2.834,2.834,0,0,0-.482,1.662v.126a.222.222,0,0,0,.252.253h3.961a.226.226,0,0,0,.258-.253Zm11.814,4.953a.636.636,0,0,1,.2.511,1,1,0,0,1-.229.538,4.611,4.611,0,0,1-1.342,1,4.335,4.335,0,0,1-2.082.487,4.978,4.978,0,0,1-1.982-.373,4.24,4.24,0,0,1-1.443-1,4.065,4.065,0,0,1-.879-1.468,5.29,5.29,0,0,1-.3-1.764v-2.809a4.943,4.943,0,0,1,.32-1.765,4.314,4.314,0,0,1,.922-1.468,4.518,4.518,0,0,1,1.441-1,4.762,4.762,0,0,1,1.918-.368,4.513,4.513,0,0,1,1.865.368,4.579,4.579,0,0,1,1.352.906.735.735,0,0,1,0,1.076l-.482.483a.677.677,0,0,1-1.049-.023,2.527,2.527,0,0,0-.729-.448,2.41,2.41,0,0,0-.957-.194,2.047,2.047,0,0,0-1.764.732,2.775,2.775,0,0,0-.535,1.7v2.809a3.576,3.576,0,0,0,.115.934,1.988,1.988,0,0,0,.381.78,1.85,1.85,0,0,0,.7.522,2.679,2.679,0,0,0,1.1.194,2.259,2.259,0,0,0,1.148-.281,4.684,4.684,0,0,0,.768-.538.712.712,0,0,1,1.072,0Zm6.307,2.275a3.538,3.538,0,0,1-2.822-1.048,4.309,4.309,0,0,1-.906-2.912v-5.108a.227.227,0,0,0-.256-.256h-.768a.7.7,0,0,1-.764-.768v-.638a.7.7,0,0,1,.764-.767h.768a.225.225,0,0,0,.256-.253v-1.789a.707.707,0,0,1,.764-.768h.768a.71.71,0,0,1,.768.768v1.789a.225.225,0,0,0,.254.253h1.92a.749.749,0,0,1,.561.206.76.76,0,0,1,.2.561v.638a.762.762,0,0,1-.2.562.753.753,0,0,1-.561.206h-1.92a.227.227,0,0,0-.254.256v4.982a2.482,2.482,0,0,0,.346,1.4,1.476,1.476,0,0,0,1.313.51h.516a.749.749,0,0,1,.561.206.762.762,0,0,1,.2.562v.637a.762.762,0,0,1-.2.562.751.751,0,0,1-.561.206Z" transform="translate(-13487.259 -6125.469)" fill="#d40f7d" fill-rule="evenodd"/>
    <path id="Caminho_1429" data-name="Caminho 1429" d="M25.352,10.6,14.373,23.32c-1.6,1.923-2.861,3.715-2.675,6.528a8.008,8.008,0,1,0,14.422-5.27,1.467,1.467,0,0,1-.328-.835,1.314,1.314,0,0,1,.4-1.072l6.172-6.156a1.482,1.482,0,0,1,2.01-.131,11.915,11.915,0,0,1,2.611,3.763A19.549,19.549,0,1,1,1.431,22.387C3.6,16.693,13.748,6.26,18.777.6a1.49,1.49,0,0,1,.918-.4,1.471,1.471,0,0,1,.985.293l6.584,5.682a1.482,1.482,0,0,1,.142,2.046Z" transform="translate(0 0)" fill-rule="evenodd" fill="url(#linear-gradient)"/>
    <g id="Grupo_945" data-name="Grupo 945" transform="translate(26.634 14.524)">
      <path id="Caminho_1430" data-name="Caminho 1430" d="M6690.61,3623.035a1.209,1.209,0,0,1-.53-1.539,1.028,1.028,0,0,1,1.412-.566Zm9.041,11.146-2.128.083-.023-.467-.04-.463-.055-.455-.071-.451-.083-.448-.1-.439-.11-.435-.123-.427-.139-.419-.15-.416-.162-.408-.174-.4-.19-.392-.2-.384-.21-.376-.221-.368-.234-.356-.245-.352-.254-.336-.265-.332-.273-.321-.285-.309-.292-.3-.305-.289-.309-.277-.32-.269-.329-.253-.336-.241-.344-.233-.352-.218-.36-.2-.364-.194.882-2.1.432.226.423.241.415.257.408.273.4.285.388.3.379.313.368.329.356.34.345.356.336.364.325.38.309.388.3.4.289.416.273.423.261.432.25.443.238.455.221.463.206.471.19.482.178.491.163.495.146.506.131.515.114.518.1.526.083.535.063.538.047.542Zm0,0a1.069,1.069,0,1,1-2.128.083Z" transform="translate(-6689.984 -3620.823)" fill="#282869"/>
    </g>
    <g id="Grupo_946" data-name="Grupo 946" transform="translate(24.774 18.218)">
      <path id="Caminho_1431" data-name="Caminho 1431" d="M6220.493,4556.583a1.208,1.208,0,0,1-.554-1.527,1.029,1.029,0,0,1,1.4-.6Zm6.192,3.976-1.99.815h0l-.071-.2-.079-.2-.083-.2-.083-.19-.091-.19-.1-.19-.1-.182-.1-.182-.1-.178-.11-.174-.114-.17-.119-.17-.123-.166-.126-.162-.127-.158-.135-.154-.134-.15-.139-.146-.146-.147-.143-.138-.15-.134-.154-.135-.154-.126-.158-.122-.158-.119-.166-.119-.166-.107-.167-.107-.174-.1-.174-.1-.174-.091-.183-.086.847-2.128.226.114.226.115.222.126.218.126.218.139.21.138.209.147.206.154.2.159.2.162.19.167.189.174.186.178.182.182.179.186.175.194.165.2.167.2.158.205.154.21.15.214.146.217.143.226.135.226.131.229.127.238.118.237.114.242.111.245.1.25.1.253.091.257Zm.641,3.5-2.128.064,0-.092,0-.091,0-.091,0-.091-.008-.087-.008-.091-.008-.091-.008-.087-.012-.087-.012-.087-.009-.091-.016-.087-.012-.086-.012-.083-.016-.087-.016-.087-.017-.087-.016-.087-.02-.083-.02-.087-.021-.083-.02-.083-.02-.083-.02-.087-.023-.079-.024-.083-.023-.083-.023-.083-.028-.079-.023-.083-.028-.08-.027-.083,1.99-.815.035.107.036.1.031.106.036.1.031.1.027.107.032.106.027.107.028.1.027.106.023.111.027.107.024.107.02.111.024.106.02.111.02.111.02.107.016.111.021.114.016.111.012.111.016.111.012.114.013.111.008.114.012.111.008.115.008.115,0,.114,0,.116Zm0,0a1.068,1.068,0,1,1-2.128.064Z" transform="translate(-6219.852 -4554.356)" fill="#00c8d2"/>
    </g>
    <path id="Caminho_1432" data-name="Caminho 1432" d="M13541.779,1817.128a.779.779,0,0,1-.572-.209.764.764,0,0,1-.207-.574v-15.565a.72.72,0,0,1,.779-.779h.779a.759.759,0,0,1,.574.21.77.77,0,0,1,.209.57v4.376a.23.23,0,0,0,.258.261h2.576a4.636,4.636,0,0,1,1.785.34,4.157,4.157,0,0,1,2.33,2.327,4.571,4.571,0,0,1,.336,1.757v2.865a4.711,4.711,0,0,1-.324,1.753,4.038,4.038,0,0,1-.926,1.408,4.336,4.336,0,0,1-1.445.922,4.95,4.95,0,0,1-1.859.34Zm6.506-7.288a2.1,2.1,0,0,0-2.213-2.212h-2.473a.23.23,0,0,0-.258.261v6.766a.23.23,0,0,0,.258.261h2.473a2.2,2.2,0,0,0,1.563-.614,2.1,2.1,0,0,0,.65-1.6Zm12.553,4.736a.683.683,0,0,1,.223.522.96.96,0,0,1-.223.546,4.95,4.95,0,0,1-1.535,1.195,5.043,5.043,0,0,1-2.42.546,5.248,5.248,0,0,1-1.967-.348,4.522,4.522,0,0,1-1.5-.977,4.37,4.37,0,0,1-.961-1.456,4.661,4.661,0,0,1-.34-1.772v-3.07a5.3,5.3,0,0,1,.3-1.78,4.121,4.121,0,0,1,.885-1.472,4.262,4.262,0,0,1,1.43-.989,4.889,4.889,0,0,1,1.938-.364,4.991,4.991,0,0,1,1.955.364,4.545,4.545,0,0,1,1.467.989,4.272,4.272,0,0,1,.938,1.472,4.877,4.877,0,0,1,.326,1.78v1.563a.715.715,0,0,1-.779.779h-5.855a.231.231,0,0,0-.262.261v.467a2.463,2.463,0,0,0,.586,1.666,2.3,2.3,0,0,0,1.836.677,2.829,2.829,0,0,0,1.533-.348,4.478,4.478,0,0,0,.832-.665.709.709,0,0,1,1.1-.028Zm-1.824-4.815a2.673,2.673,0,0,0-.545-1.689,2.143,2.143,0,0,0-1.8-.7,1.962,1.962,0,0,0-1.717.7,2.87,2.87,0,0,0-.494,1.689v.131a.231.231,0,0,0,.262.261h4.035a.229.229,0,0,0,.256-.261Zm11.385-1.872a.231.231,0,0,0-.262-.261h-1.949a2.56,2.56,0,0,0-2.02.807,2.817,2.817,0,0,0-.717,1.927v2.575a2.275,2.275,0,0,0,.586,1.61,2.115,2.115,0,0,0,1.627.625,2.763,2.763,0,0,0,1.211-.245,2.464,2.464,0,0,0,.846-.665,2.952,2.952,0,0,0,.508-.922,3.322,3.322,0,0,0,.17-1.056Zm.779,9.239a.731.731,0,0,1-.574-.237.755.755,0,0,1-.205-.518.177.177,0,0,0-.119-.194.192.192,0,0,0-.221.091,2.57,2.57,0,0,1-1.08.8,4.283,4.283,0,0,1-1.73.313,4.032,4.032,0,0,1-1.666-.336,3.716,3.716,0,0,1-1.3-.966,4.579,4.579,0,0,1-.859-1.5,5.712,5.712,0,0,1-.312-1.911v-2.314a5.151,5.151,0,0,1,.365-1.927,4.62,4.62,0,0,1,1.027-1.575,4.95,4.95,0,0,1,1.574-1.052,5.03,5.03,0,0,1,2-.392h3.877a.726.726,0,0,1,.783.779v10.149a.726.726,0,0,1-.783.783Zm10.73-10.932a.723.723,0,0,1,.783-.779h.779a.79.79,0,0,1,.574.21.767.767,0,0,1,.205.57v6.509a4.858,4.858,0,0,1-.336,1.792,4.443,4.443,0,0,1-2.434,2.512,5.322,5.322,0,0,1-3.93,0,4.7,4.7,0,0,1-1.5-1.017,4.418,4.418,0,0,1-.961-1.5,4.858,4.858,0,0,1-.336-1.792V1806.2a.767.767,0,0,1,.205-.57.781.781,0,0,1,.574-.21h.779a.723.723,0,0,1,.783.779v6.509a2.7,2.7,0,0,0,.586,1.729,2.629,2.629,0,0,0,3.656,0,2.768,2.768,0,0,0,.57-1.729Zm9.064,10.932a3.6,3.6,0,0,1-2.873-1.068,4.384,4.384,0,0,1-.926-2.968v-5.2a.231.231,0,0,0-.262-.261h-.779a.726.726,0,0,1-.779-.78v-.653a.755.755,0,0,1,.211-.57.764.764,0,0,1,.568-.21h.779a.231.231,0,0,0,.262-.261v-1.82a.772.772,0,0,1,.211-.573.764.764,0,0,1,.572-.206h.779a.713.713,0,0,1,.779.779v1.82a.231.231,0,0,0,.262.261h1.949a.721.721,0,0,1,.781.779v.653a.769.769,0,0,1-.207.57.76.76,0,0,1-.574.21h-1.949a.231.231,0,0,0-.262.261v5.073a2.546,2.546,0,0,0,.352,1.432,1.507,1.507,0,0,0,1.342.522h.518a.715.715,0,0,1,.781.779v.649a.721.721,0,0,1-.781.783Zm10.057-3.308h-2.422a4.692,4.692,0,0,1-1.77-.324,4.1,4.1,0,0,1-1.379-.9,3.951,3.951,0,0,1-.887-1.365,4.759,4.759,0,0,1-.309-1.729V1806.2a.718.718,0,0,1,.779-.779h.779a.718.718,0,0,1,.779.779v3.308a1.94,1.94,0,0,0,2.109,2.1h2.318a.229.229,0,0,0,.258-.257V1806.2a.723.723,0,0,1,.783-.779h.779a.787.787,0,0,1,.574.21.767.767,0,0,1,.205.57v7.885a3.675,3.675,0,0,1-.336,1.563,4.682,4.682,0,0,1-.965,1.551,4.575,4.575,0,0,1-1.508,1.052,4.912,4.912,0,0,1-2.008.392,7.623,7.623,0,0,1-2.211-.273,6.27,6.27,0,0,1-1.559-.716.876.876,0,0,1-.379-.471.7.7,0,0,1,.066-.57l.313-.6a.664.664,0,0,1,1.014-.309,7.507,7.507,0,0,0,1.2.518,5.145,5.145,0,0,0,1.559.21,2.313,2.313,0,0,0,1.9-.716,2.188,2.188,0,0,0,.57-1.63A.23.23,0,0,0,13601.029,1813.82Z" transform="translate(-13487.259 -1792.68)" fill="#282869"/>
  </g>
</svg>
