<svg xmlns="http://www.w3.org/2000/svg" width="48" height="48" viewBox="0 0 48 48">
  <g id="Grupo_3783" data-name="Grupo 3783" transform="translate(-315 -16)">
    <path id="Caminho_647" data-name="Caminho 647" d="M24,0A24,24,0,1,1,0,24,24,24,0,0,1,24,0Z" transform="translate(315 16)" fill="#012169"/>
    <g id="ticket" transform="translate(324 24.999)">
      <g id="Grupo_1001" data-name="Grupo 1001" transform="translate(0 0.001)">
        <path id="Caminho_1448" data-name="Caminho 1448" d="M29.4,9.975l-2.248-2.23a3.446,3.446,0,0,1-4.853,0,3.3,3.3,0,0,1-1-2.427,3.3,3.3,0,0,1,1-2.427L20.073.661a2.3,2.3,0,0,0-3.229,0L.66,16.826a2.3,2.3,0,0,0,0,3.229L2.891,22.3a3.3,3.3,0,0,1,2.427-1,3.3,3.3,0,0,1,2.426,1,3.446,3.446,0,0,1,0,4.853L9.992,29.4a2.3,2.3,0,0,0,3.23,0L29.4,13.2a2.305,2.305,0,0,0,0-3.229Zm-4.835,3.568L13.542,24.569a1.163,1.163,0,0,1-1.606,0L5.478,18.111a1.121,1.121,0,0,1,0-1.606L16.5,5.479a1.164,1.164,0,0,1,1.606,0l6.459,6.459a1.12,1.12,0,0,1,0,1.606Z" transform="translate(0 -0.001)" fill="#fff"/>
        <path id="Caminho_1449" data-name="Caminho 1449" d="M123.857,113.639l5.638,5.638L119.29,129.483l-5.638-5.638Z" transform="translate(-106.55 -106.537)" fill="#fff" opacity="0.8"/>
      </g>
    </g>
  </g>
</svg>
