<svg xmlns="http://www.w3.org/2000/svg" width="31.443" height="34.154" viewBox="0 0 31.443 34.154">
  <g id="package" transform="translate(-18.8)">
    <path id="Caminho_1478" data-name="Caminho 1478" d="M50.229,8.052a.9.9,0,0,0-.087-.382.835.835,0,0,0-.584-.461L34.875.087a.871.871,0,0,0-.757,0L19.29,7.273a.868.868,0,0,0-.49.75V26.095a.859.859,0,0,0,.49.779L34.118,34.06c.007,0,.007,0,.014.007a.256.256,0,0,1,.065.029c.007,0,.014.007.029.007l.065.022c.007,0,.014.007.022.007s.05.007.072.014h.022c.029,0,.065.007.094.007a.411.411,0,0,0,.094-.007h.022a.256.256,0,0,0,.072-.014c.007,0,.014-.007.022-.007l.065-.022c.007,0,.014-.007.029-.007a.256.256,0,0,0,.065-.029c.007,0,.007,0,.014-.007l14.871-7.208a.872.872,0,0,0,.49-.779v-18C50.229,8.066,50.229,8.059,50.229,8.052ZM34.493,1.824l12.86,6.235-4.736,2.3L29.757,4.123Zm0,12.471L21.633,8.059l6.142-2.977,12.86,6.235ZM20.53,9.45l13.1,6.351V31.9l-13.1-6.351ZM35.358,31.9V15.8l6.149-2.984v4.21a.865.865,0,1,0,1.73,0V11.973L48.5,9.421v16.1Z" fill="#012169"/>
  </g>
</svg>
