<svg xmlns="http://www.w3.org/2000/svg" width="27.946" height="32.299" viewBox="0 0 27.946 32.299">
  <g id="Grupo_885" data-name="Grupo 885" transform="translate(-7155 -169)">
    <g id="Caminho_664" data-name="Caminho 664" transform="translate(7157 171)" fill="none" stroke-linecap="round" stroke-linejoin="round">
      <path d="M0,0H23.945V28.3L20.127,25.29l-3.7,3.009L11.878,25.29,7.539,28.3l-3.8-3.009L0,28.3Z" stroke="none"/>
      <path d="M 0 0 L 0 28.29917907714844 L 3.738288879394531 25.29042053222656 L 7.539289474487305 28.29917907714844 L 11.87847995758057 25.29042053222656 L 16.42458915710449 28.29917907714844 L 20.12673950195313 25.29042053222656 L 23.94545936584473 28.29917907714844 L 23.94545936584473 0 L 0 0 M 0 -2 L 23.94545936584473 -2 C 25.05002975463867 -2 25.94545936584473 -1.104570388793945 25.94545936584473 0 L 25.94545936584473 28.29917907714844 C 25.94545936584473 29.06530952453613 25.50779914855957 29.76412010192871 24.81851959228516 30.09856033325195 C 24.54119300842285 30.23311996459961 24.24262619018555 30.29919624328613 23.94575119018555 30.29919624328613 C 23.5047607421875 30.29919624328613 23.06735801696777 30.15352249145508 22.70769882202148 29.87014961242676 L 20.14610862731934 27.85187911987305 L 17.68597030639648 29.85124969482422 C 17.32015609741211 30.14855194091797 16.87297821044922 30.29918670654297 16.42434692382813 30.29918670654297 C 16.04101753234863 30.29918670654297 15.65665626525879 30.18928527832031 15.32077980041504 29.96698951721191 L 11.90460586547852 27.70605659484863 L 8.678909301757813 29.94272994995117 C 8.335355758666992 30.18095016479492 7.937015533447266 30.29918098449707 7.539461135864258 30.29918098449707 C 7.099586486816406 30.29918098449707 6.660673141479492 30.15444183349609 6.297979354858398 29.86734008789063 L 3.748674392700195 27.84938430786133 L 1.253990173339844 29.85722923278809 C 0.8916645050048828 30.14884185791016 0.4475574493408203 30.29919815063477 -0.0003108978271484375 30.29919815063477 C -0.2937908172607422 30.29919815063477 -0.5888328552246094 30.23468017578125 -0.8637199401855469 30.10305976867676 C -1.558099746704102 29.77058029174805 -2 29.06905937194824 -2 28.29917907714844 L -2 0 C -2 -1.104570388793945 -1.104570388793945 -2 0 -2 Z" stroke="none" fill="#012169"/>
    </g>
    <g id="Grupo_884" data-name="Grupo 884" transform="translate(7161.382 175.717)">
      <line id="Linha_91" data-name="Linha 91" x2="14.456" fill="none" stroke="#012169" stroke-linecap="round" stroke-width="2"/>
      <line id="Linha_92" data-name="Linha 92" x2="14.456" transform="translate(0 5.079)" fill="none" stroke="#012169" stroke-linecap="round" stroke-width="2"/>
      <line id="Linha_93" data-name="Linha 93" x2="14.456" transform="translate(0 10.159)" fill="none" stroke="#012169" stroke-linecap="round" stroke-width="2"/>
    </g>
  </g>
</svg>
